<svg height='100px' width='100px'  fill="#000000" xmlns="http://www.w3.org/2000/svg" xmlns:xlink="http://www.w3.org/1999/xlink" version="1.1" x="0px" y="0px" viewBox="7.5 7.5 50 50" enable-background="new 7.5 7.5 50 50" xml:space="preserve"><path d="M52.084,27.514c-2.288,0-4.201,1.559-4.785,3.664l-9.831-14.357c-0.098-2.664-2.28-4.805-4.968-4.805  c-2.687,0-4.869,2.141-4.967,4.804l-9.833,14.357c-0.584-2.105-2.497-3.664-4.786-3.664c-2.749,0-4.985,2.237-4.985,4.986  s2.236,4.986,4.985,4.986c2.289,0,4.202-1.559,4.786-3.664l9.833,14.356c0.098,2.663,2.28,4.805,4.967,4.805  c2.688,0,4.871-2.142,4.968-4.806l9.831-14.355c0.584,2.105,2.497,3.664,4.785,3.664c2.749,0,4.986-2.237,4.986-4.986  S54.833,27.514,52.084,27.514z M32.5,43.012c-2.289,0-4.201,1.559-4.785,3.663L18.35,33h9.215c0.255,2.512,2.357,4.486,4.935,4.486  c2.578,0,4.681-1.975,4.936-4.486h9.215l-9.364,13.676C36.702,44.57,34.789,43.012,32.5,43.012z M32.5,21.989  c2.288,0,4.202-1.559,4.786-3.665L46.65,32h-9.215c-0.255-2.512-2.357-4.486-4.936-4.486c-2.578,0-4.68,1.974-4.935,4.486H18.35  l9.365-13.675C28.299,20.43,30.212,21.989,32.5,21.989z"></path></svg>